<mxfile host="app.diagrams.net" agent="Mozilla/5.0 (Windows NT 10.0; Win64; x64) AppleWebKit/537.36 (KHTML, like Gecko) Chrome/132.0.0.0 YaBrowser/25.2.0.0 Safari/537.36" version="26.2.12">
  <diagram name="Страница — 1" id="TZkju2Yi2mCkDZLQ6WYB">
    <mxGraphModel dx="2490" dy="1610" grid="0" gridSize="10" guides="1" tooltips="1" connect="1" arrows="1" fold="1" page="1" pageScale="1" pageWidth="4681" pageHeight="3300" background="#ffffff" math="0" shadow="0">
      <root>
        <mxCell id="0" />
        <mxCell id="1" parent="0" />
        <mxCell id="06xptAxNhRXn6v7l2ab3-1" value="Набор детей в спортшколу" style="swimlane;html=1;childLayout=stackLayout;resizeParent=1;resizeParentMax=0;horizontal=0;startSize=20;horizontalStack=0;whiteSpace=wrap;" parent="1" vertex="1">
          <mxGeometry x="790" y="1160" width="2960" height="1059.8900000000003" as="geometry" />
        </mxCell>
        <mxCell id="06xptAxNhRXn6v7l2ab3-2" value="Родители" style="swimlane;html=1;startSize=20;horizontal=0;" parent="06xptAxNhRXn6v7l2ab3-1" vertex="1">
          <mxGeometry x="20" width="2940" height="323" as="geometry" />
        </mxCell>
        <mxCell id="06xptAxNhRXn6v7l2ab3-5" value="Ознакомление с информацией" style="points=[[0.25,0,0],[0.5,0,0],[0.75,0,0],[1,0.25,0],[1,0.5,0],[1,0.75,0],[0.75,1,0],[0.5,1,0],[0.25,1,0],[0,0.75,0],[0,0.5,0],[0,0.25,0]];shape=mxgraph.bpmn.task2;whiteSpace=wrap;rectStyle=rounded;size=10;html=1;container=1;expand=0;collapsible=0;taskMarker=abstract;" parent="06xptAxNhRXn6v7l2ab3-2" vertex="1">
          <mxGeometry x="160" y="110" width="122" height="81" as="geometry" />
        </mxCell>
        <mxCell id="06xptAxNhRXn6v7l2ab3-6" value="Есть ли желание записать&lt;div&gt;&lt;span style=&quot;background-color: light-dark(rgb(255, 255, 255), rgb(18, 18, 18)); color: light-dark(rgb(0, 0, 0), rgb(255, 255, 255));&quot;&gt;ребенка в спортшколу?&lt;/span&gt;&lt;/div&gt;" style="points=[[0.25,0.25,0],[0.5,0,0],[0.75,0.25,0],[1,0.5,0],[0.75,0.75,0],[0.5,1,0],[0.25,0.75,0],[0,0.5,0]];shape=mxgraph.bpmn.gateway2;html=1;verticalLabelPosition=bottom;labelBackgroundColor=#ffffff;verticalAlign=top;align=center;perimeter=rhombusPerimeter;outlineConnect=0;outline=none;symbol=none;gwType=exclusive;" parent="06xptAxNhRXn6v7l2ab3-2" vertex="1">
          <mxGeometry x="363" y="127" width="50" height="50" as="geometry" />
        </mxCell>
        <mxCell id="06xptAxNhRXn6v7l2ab3-7" value="" style="edgeStyle=elbowEdgeStyle;fontSize=12;html=1;endArrow=blockThin;endFill=1;rounded=0;exitX=1;exitY=0.5;exitDx=0;exitDy=0;exitPerimeter=0;entryX=0;entryY=0.5;entryDx=0;entryDy=0;entryPerimeter=0;" parent="06xptAxNhRXn6v7l2ab3-2" target="06xptAxNhRXn6v7l2ab3-6" edge="1">
          <mxGeometry width="160" relative="1" as="geometry">
            <mxPoint x="282" y="152" as="sourcePoint" />
            <mxPoint x="319" y="188" as="targetPoint" />
          </mxGeometry>
        </mxCell>
        <mxCell id="06xptAxNhRXn6v7l2ab3-8" value="" style="points=[[0.145,0.145,0],[0.5,0,0],[0.855,0.145,0],[1,0.5,0],[0.855,0.855,0],[0.5,1,0],[0.145,0.855,0],[0,0.5,0]];shape=mxgraph.bpmn.event;html=1;verticalLabelPosition=bottom;labelBackgroundColor=#ffffff;verticalAlign=top;align=center;perimeter=ellipsePerimeter;outlineConnect=0;aspect=fixed;outline=end;symbol=terminate2;" parent="06xptAxNhRXn6v7l2ab3-2" vertex="1">
          <mxGeometry x="488" y="50" width="43" height="43" as="geometry" />
        </mxCell>
        <mxCell id="06xptAxNhRXn6v7l2ab3-9" value="" style="edgeStyle=elbowEdgeStyle;fontSize=12;html=1;endArrow=blockThin;endFill=1;rounded=0;exitX=0.5;exitY=0;exitDx=0;exitDy=0;exitPerimeter=0;entryX=0;entryY=0.5;entryDx=0;entryDy=0;entryPerimeter=0;" parent="06xptAxNhRXn6v7l2ab3-2" source="06xptAxNhRXn6v7l2ab3-6" target="06xptAxNhRXn6v7l2ab3-8" edge="1">
          <mxGeometry width="160" relative="1" as="geometry">
            <mxPoint x="159" y="188" as="sourcePoint" />
            <mxPoint x="487" y="62.00000000000001" as="targetPoint" />
          </mxGeometry>
        </mxCell>
        <mxCell id="06xptAxNhRXn6v7l2ab3-10" value="Нет" style="edgeLabel;html=1;align=center;verticalAlign=middle;resizable=0;points=[];" parent="06xptAxNhRXn6v7l2ab3-9" vertex="1" connectable="0">
          <mxGeometry x="-0.407" y="2" relative="1" as="geometry">
            <mxPoint as="offset" />
          </mxGeometry>
        </mxCell>
        <mxCell id="06xptAxNhRXn6v7l2ab3-11" value="Подготовить заявку" style="points=[[0.25,0,0],[0.5,0,0],[0.75,0,0],[1,0.25,0],[1,0.5,0],[1,0.75,0],[0.75,1,0],[0.5,1,0],[0.25,1,0],[0,0.75,0],[0,0.5,0],[0,0.25,0]];shape=mxgraph.bpmn.task2;whiteSpace=wrap;rectStyle=rounded;size=10;html=1;container=1;expand=0;collapsible=0;taskMarker=abstract;" parent="06xptAxNhRXn6v7l2ab3-2" vertex="1">
          <mxGeometry x="560" y="106" width="122" height="81" as="geometry" />
        </mxCell>
        <mxCell id="06xptAxNhRXn6v7l2ab3-12" value="Отправить заявку администрации спортшколы" style="points=[[0.25,0,0],[0.5,0,0],[0.75,0,0],[1,0.25,0],[1,0.5,0],[1,0.75,0],[0.75,1,0],[0.5,1,0],[0.25,1,0],[0,0.75,0],[0,0.5,0],[0,0.25,0]];shape=mxgraph.bpmn.task2;whiteSpace=wrap;rectStyle=rounded;size=10;html=1;container=1;expand=0;collapsible=0;taskMarker=abstract;" parent="06xptAxNhRXn6v7l2ab3-2" vertex="1">
          <mxGeometry x="720" y="106" width="122" height="81" as="geometry" />
        </mxCell>
        <mxCell id="06xptAxNhRXn6v7l2ab3-13" value="" style="endArrow=classic;html=1;rounded=0;exitX=1;exitY=0.5;exitDx=0;exitDy=0;exitPerimeter=0;entryX=0;entryY=0.5;entryDx=0;entryDy=0;entryPerimeter=0;" parent="06xptAxNhRXn6v7l2ab3-2" source="06xptAxNhRXn6v7l2ab3-11" target="06xptAxNhRXn6v7l2ab3-12" edge="1">
          <mxGeometry width="50" height="50" relative="1" as="geometry">
            <mxPoint x="680" y="310" as="sourcePoint" />
            <mxPoint x="730" y="260" as="targetPoint" />
          </mxGeometry>
        </mxCell>
        <mxCell id="06xptAxNhRXn6v7l2ab3-15" value="Есть желание оставить&lt;div&gt;заявку в листе ожидания?&lt;/div&gt;" style="points=[[0.25,0.25,0],[0.5,0,0],[0.75,0.25,0],[1,0.5,0],[0.75,0.75,0],[0.5,1,0],[0.25,0.75,0],[0,0.5,0]];shape=mxgraph.bpmn.gateway2;html=1;verticalLabelPosition=bottom;labelBackgroundColor=#ffffff;verticalAlign=top;align=center;perimeter=rhombusPerimeter;outlineConnect=0;outline=none;symbol=none;gwType=exclusive;" parent="06xptAxNhRXn6v7l2ab3-2" vertex="1">
          <mxGeometry x="1450" y="125.5" width="50" height="50" as="geometry" />
        </mxCell>
        <mxCell id="06xptAxNhRXn6v7l2ab3-16" value="" style="points=[[0.145,0.145,0],[0.5,0,0],[0.855,0.145,0],[1,0.5,0],[0.855,0.855,0],[0.5,1,0],[0.145,0.855,0],[0,0.5,0]];shape=mxgraph.bpmn.event;html=1;verticalLabelPosition=bottom;labelBackgroundColor=#ffffff;verticalAlign=top;align=center;perimeter=ellipsePerimeter;outlineConnect=0;aspect=fixed;outline=end;symbol=terminate2;" parent="06xptAxNhRXn6v7l2ab3-2" vertex="1">
          <mxGeometry x="1640" y="50" width="43" height="43" as="geometry" />
        </mxCell>
        <mxCell id="06xptAxNhRXn6v7l2ab3-17" value="" style="edgeStyle=elbowEdgeStyle;fontSize=12;html=1;endArrow=blockThin;endFill=1;rounded=0;exitX=0.5;exitY=0;exitDx=0;exitDy=0;exitPerimeter=0;entryX=0;entryY=0.5;entryDx=0;entryDy=0;entryPerimeter=0;" parent="06xptAxNhRXn6v7l2ab3-2" source="06xptAxNhRXn6v7l2ab3-15" target="06xptAxNhRXn6v7l2ab3-16" edge="1">
          <mxGeometry width="160" relative="1" as="geometry">
            <mxPoint x="1480" y="125.5" as="sourcePoint" />
            <mxPoint x="1579" y="60.50000000000001" as="targetPoint" />
            <Array as="points">
              <mxPoint x="1520" y="94" />
            </Array>
          </mxGeometry>
        </mxCell>
        <mxCell id="06xptAxNhRXn6v7l2ab3-18" value="Нет" style="edgeLabel;html=1;align=center;verticalAlign=middle;resizable=0;points=[];" parent="06xptAxNhRXn6v7l2ab3-17" vertex="1" connectable="0">
          <mxGeometry x="-0.407" y="2" relative="1" as="geometry">
            <mxPoint as="offset" />
          </mxGeometry>
        </mxCell>
        <mxCell id="06xptAxNhRXn6v7l2ab3-19" value="Отправить администрации спортшколы уведомление о согласии добавить заявку в лист ожидания" style="points=[[0.25,0,0],[0.5,0,0],[0.75,0,0],[1,0.25,0],[1,0.5,0],[1,0.75,0],[0.75,1,0],[0.5,1,0],[0.25,1,0],[0,0.75,0],[0,0.5,0],[0,0.25,0]];shape=mxgraph.bpmn.task2;whiteSpace=wrap;rectStyle=rounded;size=10;html=1;container=1;expand=0;collapsible=0;taskMarker=abstract;" parent="06xptAxNhRXn6v7l2ab3-2" vertex="1">
          <mxGeometry x="1593" y="106" width="137" height="90" as="geometry" />
        </mxCell>
        <mxCell id="06xptAxNhRXn6v7l2ab3-20" value="" style="endArrow=classic;html=1;rounded=0;exitX=1;exitY=0.5;exitDx=0;exitDy=0;exitPerimeter=0;entryX=0;entryY=0.5;entryDx=0;entryDy=0;entryPerimeter=0;" parent="06xptAxNhRXn6v7l2ab3-2" source="06xptAxNhRXn6v7l2ab3-15" target="06xptAxNhRXn6v7l2ab3-19" edge="1">
          <mxGeometry width="50" height="50" relative="1" as="geometry">
            <mxPoint x="1750" y="334" as="sourcePoint" />
            <mxPoint x="1800" y="284" as="targetPoint" />
          </mxGeometry>
        </mxCell>
        <mxCell id="06xptAxNhRXn6v7l2ab3-21" value="Да" style="edgeLabel;html=1;align=center;verticalAlign=middle;resizable=0;points=[];" parent="06xptAxNhRXn6v7l2ab3-20" vertex="1" connectable="0">
          <mxGeometry x="0.0079" relative="1" as="geometry">
            <mxPoint as="offset" />
          </mxGeometry>
        </mxCell>
        <mxCell id="06xptAxNhRXn6v7l2ab3-24" value="Ознакомление с датой и временем проведения индивидуального отбора" style="points=[[0.25,0,0],[0.5,0,0],[0.75,0,0],[1,0.25,0],[1,0.5,0],[1,0.75,0],[0.75,1,0],[0.5,1,0],[0.25,1,0],[0,0.75,0],[0,0.5,0],[0,0.25,0]];shape=mxgraph.bpmn.task2;whiteSpace=wrap;rectStyle=rounded;size=10;html=1;container=1;expand=0;collapsible=0;taskMarker=abstract;" parent="06xptAxNhRXn6v7l2ab3-2" vertex="1">
          <mxGeometry x="1800" y="106" width="130" height="80" as="geometry" />
        </mxCell>
        <mxCell id="06xptAxNhRXn6v7l2ab3-25" value="Сообщить ребенку об индивидуальном отборе" style="points=[[0.25,0,0],[0.5,0,0],[0.75,0,0],[1,0.25,0],[1,0.5,0],[1,0.75,0],[0.75,1,0],[0.5,1,0],[0.25,1,0],[0,0.75,0],[0,0.5,0],[0,0.25,0]];shape=mxgraph.bpmn.task2;whiteSpace=wrap;rectStyle=rounded;size=10;html=1;container=1;expand=0;collapsible=0;taskMarker=abstract;" parent="06xptAxNhRXn6v7l2ab3-2" vertex="1">
          <mxGeometry x="1981" y="106" width="130" height="80" as="geometry" />
        </mxCell>
        <mxCell id="06xptAxNhRXn6v7l2ab3-26" value="" style="endArrow=classic;html=1;rounded=0;entryX=0;entryY=0.5;entryDx=0;entryDy=0;entryPerimeter=0;exitX=1;exitY=0.5;exitDx=0;exitDy=0;exitPerimeter=0;" parent="06xptAxNhRXn6v7l2ab3-2" source="06xptAxNhRXn6v7l2ab3-24" target="06xptAxNhRXn6v7l2ab3-25" edge="1">
          <mxGeometry width="50" height="50" relative="1" as="geometry">
            <mxPoint x="1850" y="320" as="sourcePoint" />
            <mxPoint x="1900" y="270" as="targetPoint" />
          </mxGeometry>
        </mxCell>
        <mxCell id="06xptAxNhRXn6v7l2ab3-27" value="Ознакомление с принятым решением по зачислению ребенка" style="points=[[0.25,0,0],[0.5,0,0],[0.75,0,0],[1,0.25,0],[1,0.5,0],[1,0.75,0],[0.75,1,0],[0.5,1,0],[0.25,1,0],[0,0.75,0],[0,0.5,0],[0,0.25,0]];shape=mxgraph.bpmn.task2;whiteSpace=wrap;rectStyle=rounded;size=10;html=1;container=1;expand=0;collapsible=0;taskMarker=abstract;" parent="06xptAxNhRXn6v7l2ab3-2" vertex="1">
          <mxGeometry x="2520" y="107" width="130" height="80" as="geometry" />
        </mxCell>
        <mxCell id="06xptAxNhRXn6v7l2ab3-28" value="Решение&lt;div&gt;положительное?&lt;/div&gt;" style="points=[[0.25,0.25,0],[0.5,0,0],[0.75,0.25,0],[1,0.5,0],[0.75,0.75,0],[0.5,1,0],[0.25,0.75,0],[0,0.5,0]];shape=mxgraph.bpmn.gateway2;html=1;verticalLabelPosition=bottom;labelBackgroundColor=#ffffff;verticalAlign=top;align=center;perimeter=rhombusPerimeter;outlineConnect=0;outline=none;symbol=none;gwType=exclusive;" parent="06xptAxNhRXn6v7l2ab3-2" vertex="1">
          <mxGeometry x="2710" y="122.00000000000023" width="50" height="50" as="geometry" />
        </mxCell>
        <mxCell id="06xptAxNhRXn6v7l2ab3-29" value="" style="endArrow=classic;html=1;rounded=0;exitX=1;exitY=0.5;exitDx=0;exitDy=0;exitPerimeter=0;" parent="06xptAxNhRXn6v7l2ab3-2" source="06xptAxNhRXn6v7l2ab3-27" target="06xptAxNhRXn6v7l2ab3-28" edge="1">
          <mxGeometry width="50" height="50" relative="1" as="geometry">
            <mxPoint x="2660" y="290" as="sourcePoint" />
            <mxPoint x="2710" y="240" as="targetPoint" />
          </mxGeometry>
        </mxCell>
        <mxCell id="06xptAxNhRXn6v7l2ab3-30" value="" style="points=[[0.145,0.145,0],[0.5,0,0],[0.855,0.145,0],[1,0.5,0],[0.855,0.855,0],[0.5,1,0],[0.145,0.855,0],[0,0.5,0]];shape=mxgraph.bpmn.event;html=1;verticalLabelPosition=bottom;labelBackgroundColor=#ffffff;verticalAlign=top;align=center;perimeter=ellipsePerimeter;outlineConnect=0;aspect=fixed;outline=end;symbol=terminate2;" parent="06xptAxNhRXn6v7l2ab3-2" vertex="1">
          <mxGeometry x="2860" y="82.5" width="43" height="43" as="geometry" />
        </mxCell>
        <mxCell id="06xptAxNhRXn6v7l2ab3-31" value="" style="points=[[0.145,0.145,0],[0.5,0,0],[0.855,0.145,0],[1,0.5,0],[0.855,0.855,0],[0.5,1,0],[0.145,0.855,0],[0,0.5,0]];shape=mxgraph.bpmn.event;html=1;verticalLabelPosition=bottom;labelBackgroundColor=#ffffff;verticalAlign=top;align=center;perimeter=ellipsePerimeter;outlineConnect=0;aspect=fixed;outline=end;symbol=terminate2;" parent="06xptAxNhRXn6v7l2ab3-2" vertex="1">
          <mxGeometry x="2860" y="172" width="43" height="43" as="geometry" />
        </mxCell>
        <mxCell id="06xptAxNhRXn6v7l2ab3-32" value="" style="endArrow=classic;html=1;rounded=0;exitX=0.5;exitY=0;exitDx=0;exitDy=0;exitPerimeter=0;edgeStyle=elbowEdgeStyle;elbow=vertical;" parent="06xptAxNhRXn6v7l2ab3-2" source="06xptAxNhRXn6v7l2ab3-28" edge="1">
          <mxGeometry width="50" height="50" relative="1" as="geometry">
            <mxPoint x="2650" y="210" as="sourcePoint" />
            <mxPoint x="2860" y="100" as="targetPoint" />
            <Array as="points">
              <mxPoint x="2800" y="100" />
            </Array>
          </mxGeometry>
        </mxCell>
        <mxCell id="06xptAxNhRXn6v7l2ab3-33" value="Да" style="edgeLabel;html=1;align=center;verticalAlign=middle;resizable=0;points=[];" parent="06xptAxNhRXn6v7l2ab3-32" vertex="1" connectable="0">
          <mxGeometry x="0.5061" relative="1" as="geometry">
            <mxPoint as="offset" />
          </mxGeometry>
        </mxCell>
        <mxCell id="06xptAxNhRXn6v7l2ab3-34" value="" style="endArrow=classic;html=1;rounded=0;exitX=0.5;exitY=1;exitDx=0;exitDy=0;exitPerimeter=0;edgeStyle=elbowEdgeStyle;" parent="06xptAxNhRXn6v7l2ab3-2" source="06xptAxNhRXn6v7l2ab3-28" target="06xptAxNhRXn6v7l2ab3-31" edge="1">
          <mxGeometry width="50" height="50" relative="1" as="geometry">
            <mxPoint x="2770" y="170" as="sourcePoint" />
            <mxPoint x="2850" y="170" as="targetPoint" />
            <Array as="points" />
          </mxGeometry>
        </mxCell>
        <mxCell id="06xptAxNhRXn6v7l2ab3-35" value="Нет" style="edgeLabel;html=1;align=center;verticalAlign=middle;resizable=0;points=[];" parent="06xptAxNhRXn6v7l2ab3-34" vertex="1" connectable="0">
          <mxGeometry x="0.5656" y="1" relative="1" as="geometry">
            <mxPoint as="offset" />
          </mxGeometry>
        </mxCell>
        <mxCell id="06xptAxNhRXn6v7l2ab3-36" value="Ребенок зачислен" style="text;html=1;align=center;verticalAlign=middle;whiteSpace=wrap;rounded=0;" parent="06xptAxNhRXn6v7l2ab3-2" vertex="1">
          <mxGeometry x="2842.25" y="46.5" width="78.5" height="30" as="geometry" />
        </mxCell>
        <mxCell id="06xptAxNhRXn6v7l2ab3-37" value="Получен отказ в зачислении" style="text;html=1;align=center;verticalAlign=middle;whiteSpace=wrap;rounded=0;" parent="06xptAxNhRXn6v7l2ab3-2" vertex="1">
          <mxGeometry x="2832.25" y="137" width="98.5" height="30" as="geometry" />
        </mxCell>
        <mxCell id="06xptAxNhRXn6v7l2ab3-38" value="Отзыв заявки" style="text;html=1;align=center;verticalAlign=middle;whiteSpace=wrap;rounded=0;" parent="06xptAxNhRXn6v7l2ab3-2" vertex="1">
          <mxGeometry x="1612.25" y="20" width="98.5" height="30" as="geometry" />
        </mxCell>
        <mxCell id="06xptAxNhRXn6v7l2ab3-39" value="Отказ родителя от подачи заявки" style="text;html=1;align=center;verticalAlign=middle;whiteSpace=wrap;rounded=0;" parent="06xptAxNhRXn6v7l2ab3-2" vertex="1">
          <mxGeometry x="461.5" y="16.5" width="98.5" height="30" as="geometry" />
        </mxCell>
        <mxCell id="p2fJr4ID9eZUpb8ZtOoU-24" value="" style="endArrow=blockThin;html=1;labelPosition=left;verticalLabelPosition=middle;align=right;verticalAlign=middle;dashed=1;dashPattern=8 4;endFill=0;startArrow=oval;startFill=0;endSize=6;startSize=4;rounded=0;entryX=0.654;entryY=-0.019;entryDx=0;entryDy=0;entryPerimeter=0;exitX=1;exitY=0.5;exitDx=0;exitDy=0;exitPerimeter=0;" parent="06xptAxNhRXn6v7l2ab3-2" edge="1">
          <mxGeometry relative="1" as="geometry">
            <mxPoint x="1342" y="200.93" as="sourcePoint" />
            <mxPoint x="798.48" y="593.4410000000004" as="targetPoint" />
            <Array as="points">
              <mxPoint x="1380" y="200.93" />
              <mxPoint x="1380" y="133.93" />
              <mxPoint x="1380" y="40.93" />
              <mxPoint x="940" y="40.93" />
              <mxPoint x="940" y="430.93" />
              <mxPoint x="800" y="430.93" />
            </Array>
          </mxGeometry>
        </mxCell>
        <mxCell id="p2fJr4ID9eZUpb8ZtOoU-25" value="Заявка&amp;nbsp;&lt;div&gt;на зачисление&lt;/div&gt;&lt;div&gt;ребенка&lt;/div&gt;" style="shape=message;html=1;outlineConnect=0;labelPosition=left;verticalLabelPosition=middle;align=right;verticalAlign=middle;spacingRight=5;labelBackgroundColor=#ffffff;" parent="p2fJr4ID9eZUpb8ZtOoU-24" vertex="1">
          <mxGeometry width="24" height="16" relative="1" as="geometry">
            <mxPoint x="10" y="321" as="offset" />
          </mxGeometry>
        </mxCell>
        <mxCell id="06xptAxNhRXn6v7l2ab3-40" value="Администрация спортшколы" style="swimlane;html=1;startSize=20;horizontal=0;" parent="06xptAxNhRXn6v7l2ab3-1" vertex="1">
          <mxGeometry x="20" y="323" width="2940" height="423.89" as="geometry" />
        </mxCell>
        <mxCell id="06xptAxNhRXn6v7l2ab3-41" value="" style="points=[[0.145,0.145,0],[0.5,0,0],[0.855,0.145,0],[1,0.5,0],[0.855,0.855,0],[0.5,1,0],[0.145,0.855,0],[0,0.5,0]];shape=mxgraph.bpmn.event;html=1;verticalLabelPosition=bottom;labelBackgroundColor=#ffffff;verticalAlign=top;align=center;perimeter=ellipsePerimeter;outlineConnect=0;aspect=fixed;outline=standard;symbol=general;" parent="06xptAxNhRXn6v7l2ab3-40" vertex="1">
          <mxGeometry x="50" y="189.54999999999998" width="32" height="32" as="geometry" />
        </mxCell>
        <mxCell id="06xptAxNhRXn6v7l2ab3-42" value="Публикация объявления о наборе детей в спортшколу" style="points=[[0.25,0,0],[0.5,0,0],[0.75,0,0],[1,0.25,0],[1,0.5,0],[1,0.75,0],[0.75,1,0],[0.5,1,0],[0.25,1,0],[0,0.75,0],[0,0.5,0],[0,0.25,0]];shape=mxgraph.bpmn.task2;whiteSpace=wrap;rectStyle=rounded;size=10;html=1;container=1;expand=0;collapsible=0;taskMarker=abstract;" parent="06xptAxNhRXn6v7l2ab3-40" vertex="1">
          <mxGeometry x="160" y="165.04999999999998" width="122" height="81" as="geometry" />
        </mxCell>
        <mxCell id="06xptAxNhRXn6v7l2ab3-43" value="" style="edgeStyle=elbowEdgeStyle;fontSize=12;html=1;endArrow=blockThin;endFill=1;rounded=0;exitX=1;exitY=0.5;exitDx=0;exitDy=0;exitPerimeter=0;entryX=0;entryY=0.5;entryDx=0;entryDy=0;entryPerimeter=0;" parent="06xptAxNhRXn6v7l2ab3-40" source="06xptAxNhRXn6v7l2ab3-41" target="06xptAxNhRXn6v7l2ab3-42" edge="1">
          <mxGeometry width="160" relative="1" as="geometry">
            <mxPoint x="82" y="99.55000000000001" as="sourcePoint" />
            <mxPoint x="316" y="-57.45" as="targetPoint" />
          </mxGeometry>
        </mxCell>
        <mxCell id="06xptAxNhRXn6v7l2ab3-44" value="Проверить данные&lt;div&gt;&amp;nbsp;в заявках&lt;/div&gt;" style="points=[[0.25,0,0],[0.5,0,0],[0.75,0,0],[1,0.25,0],[1,0.5,0],[1,0.75,0],[0.75,1,0],[0.5,1,0],[0.25,1,0],[0,0.75,0],[0,0.5,0],[0,0.25,0]];shape=mxgraph.bpmn.task2;whiteSpace=wrap;rectStyle=rounded;size=10;html=1;container=1;expand=0;collapsible=0;taskMarker=abstract;" parent="06xptAxNhRXn6v7l2ab3-40" vertex="1">
          <mxGeometry x="720" y="271.05" width="120" height="81" as="geometry" />
        </mxCell>
        <mxCell id="06xptAxNhRXn6v7l2ab3-61" value="Места есть?" style="points=[[0.25,0.25,0],[0.5,0,0],[0.75,0.25,0],[1,0.5,0],[0.75,0.75,0],[0.5,1,0],[0.25,0.75,0],[0,0.5,0]];shape=mxgraph.bpmn.gateway2;html=1;verticalLabelPosition=bottom;labelBackgroundColor=#ffffff;verticalAlign=top;align=center;perimeter=rhombusPerimeter;outlineConnect=0;outline=none;symbol=none;gwType=exclusive;" parent="06xptAxNhRXn6v7l2ab3-40" vertex="1">
          <mxGeometry x="1450" y="285.9399999999998" width="50" height="50" as="geometry" />
        </mxCell>
        <mxCell id="06xptAxNhRXn6v7l2ab3-62" value="Нет" style="edgeLabel;html=1;align=center;verticalAlign=middle;resizable=0;points=[];" parent="06xptAxNhRXn6v7l2ab3-40" vertex="1" connectable="0">
          <mxGeometry x="1490.5" y="254.94052631578944" as="geometry" />
        </mxCell>
        <mxCell id="06xptAxNhRXn6v7l2ab3-63" value="" style="endArrow=classic;html=1;rounded=0;exitX=1;exitY=0.5;exitDx=0;exitDy=0;exitPerimeter=0;" parent="06xptAxNhRXn6v7l2ab3-40" source="06xptAxNhRXn6v7l2ab3-58" target="06xptAxNhRXn6v7l2ab3-61" edge="1">
          <mxGeometry width="50" height="50" relative="1" as="geometry">
            <mxPoint x="1320" y="258.05" as="sourcePoint" />
            <mxPoint x="1370" y="208.04999999999998" as="targetPoint" />
          </mxGeometry>
        </mxCell>
        <mxCell id="06xptAxNhRXn6v7l2ab3-65" value="Регистрация заявки" style="points=[[0.25,0,0],[0.5,0,0],[0.75,0,0],[1,0.25,0],[1,0.5,0],[1,0.75,0],[0.75,1,0],[0.5,1,0],[0.25,1,0],[0,0.75,0],[0,0.5,0],[0,0.25,0]];shape=mxgraph.bpmn.task2;whiteSpace=wrap;rectStyle=rounded;size=10;html=1;container=1;expand=0;collapsible=0;taskMarker=abstract;" parent="06xptAxNhRXn6v7l2ab3-40" vertex="1">
          <mxGeometry x="1600" y="270.4399999999999" width="120" height="81" as="geometry" />
        </mxCell>
        <mxCell id="06xptAxNhRXn6v7l2ab3-66" value="" style="endArrow=classic;html=1;rounded=0;entryX=0;entryY=0.5;entryDx=0;entryDy=0;entryPerimeter=0;exitX=1;exitY=0.5;exitDx=0;exitDy=0;exitPerimeter=0;" parent="06xptAxNhRXn6v7l2ab3-40" source="06xptAxNhRXn6v7l2ab3-61" target="06xptAxNhRXn6v7l2ab3-65" edge="1">
          <mxGeometry width="50" height="50" relative="1" as="geometry">
            <mxPoint x="1440" y="218.04999999999998" as="sourcePoint" />
            <mxPoint x="1490" y="168.04999999999998" as="targetPoint" />
          </mxGeometry>
        </mxCell>
        <mxCell id="06xptAxNhRXn6v7l2ab3-67" value="Да" style="edgeLabel;html=1;align=center;verticalAlign=middle;resizable=0;points=[];" parent="06xptAxNhRXn6v7l2ab3-66" vertex="1" connectable="0">
          <mxGeometry x="-0.2206" y="-1" relative="1" as="geometry">
            <mxPoint as="offset" />
          </mxGeometry>
        </mxCell>
        <mxCell id="06xptAxNhRXn6v7l2ab3-68" value="Добавить заявку в лист ожидания" style="points=[[0.25,0,0],[0.5,0,0],[0.75,0,0],[1,0.25,0],[1,0.5,0],[1,0.75,0],[0.75,1,0],[0.5,1,0],[0.25,1,0],[0,0.75,0],[0,0.5,0],[0,0.25,0]];shape=mxgraph.bpmn.task2;whiteSpace=wrap;rectStyle=rounded;size=10;html=1;container=1;expand=0;collapsible=0;taskMarker=abstract;" parent="06xptAxNhRXn6v7l2ab3-40" vertex="1">
          <mxGeometry x="1600" y="66.55000000000001" width="120" height="74" as="geometry" />
        </mxCell>
        <mxCell id="06xptAxNhRXn6v7l2ab3-69" value="Отправить&amp;nbsp; уведомление о дате и времени индивидуального отбора" style="points=[[0.25,0,0],[0.5,0,0],[0.75,0,0],[1,0.25,0],[1,0.5,0],[1,0.75,0],[0.75,1,0],[0.5,1,0],[0.25,1,0],[0,0.75,0],[0,0.5,0],[0,0.25,0]];shape=mxgraph.bpmn.task2;whiteSpace=wrap;rectStyle=rounded;size=10;html=1;container=1;expand=0;collapsible=0;taskMarker=abstract;" parent="06xptAxNhRXn6v7l2ab3-40" vertex="1">
          <mxGeometry x="1800" y="271.05" width="130" height="80" as="geometry" />
        </mxCell>
        <mxCell id="06xptAxNhRXn6v7l2ab3-70" value="" style="endArrow=classic;html=1;rounded=0;exitX=1;exitY=0.5;exitDx=0;exitDy=0;exitPerimeter=0;entryX=0;entryY=0.5;entryDx=0;entryDy=0;entryPerimeter=0;" parent="06xptAxNhRXn6v7l2ab3-40" source="06xptAxNhRXn6v7l2ab3-65" target="06xptAxNhRXn6v7l2ab3-69" edge="1">
          <mxGeometry width="50" height="50" relative="1" as="geometry">
            <mxPoint x="1770" y="358.05" as="sourcePoint" />
            <mxPoint x="1820" y="308.05" as="targetPoint" />
          </mxGeometry>
        </mxCell>
        <mxCell id="06xptAxNhRXn6v7l2ab3-71" value="Формирование списков групп" style="points=[[0.25,0,0],[0.5,0,0],[0.75,0,0],[1,0.25,0],[1,0.5,0],[1,0.75,0],[0.75,1,0],[0.5,1,0],[0.25,1,0],[0,0.75,0],[0,0.5,0],[0,0.25,0]];shape=mxgraph.bpmn.task2;whiteSpace=wrap;rectStyle=rounded;size=10;html=1;container=1;expand=0;collapsible=0;taskMarker=abstract;" parent="06xptAxNhRXn6v7l2ab3-40" vertex="1">
          <mxGeometry x="2350" y="254.9405263157899" width="122" height="81" as="geometry" />
        </mxCell>
        <mxCell id="06xptAxNhRXn6v7l2ab3-72" value="Уведомить родителей&amp;nbsp; о принятом решении по зачислению" style="points=[[0.25,0,0],[0.5,0,0],[0.75,0,0],[1,0.25,0],[1,0.5,0],[1,0.75,0],[0.75,1,0],[0.5,1,0],[0.25,1,0],[0,0.75,0],[0,0.5,0],[0,0.25,0]];shape=mxgraph.bpmn.task2;whiteSpace=wrap;rectStyle=rounded;size=10;html=1;container=1;expand=0;collapsible=0;taskMarker=abstract;" parent="06xptAxNhRXn6v7l2ab3-40" vertex="1">
          <mxGeometry x="2520" y="254.94" width="130" height="80" as="geometry" />
        </mxCell>
        <mxCell id="06xptAxNhRXn6v7l2ab3-73" value="" style="points=[[0.145,0.145,0],[0.5,0,0],[0.855,0.145,0],[1,0.5,0],[0.855,0.855,0],[0.5,1,0],[0.145,0.855,0],[0,0.5,0]];shape=mxgraph.bpmn.event;html=1;verticalLabelPosition=bottom;labelBackgroundColor=#ffffff;verticalAlign=top;align=center;perimeter=ellipsePerimeter;outlineConnect=0;aspect=fixed;outline=end;symbol=terminate2;" parent="06xptAxNhRXn6v7l2ab3-40" vertex="1">
          <mxGeometry x="2860" y="273.9399999999998" width="43" height="43" as="geometry" />
        </mxCell>
        <mxCell id="06xptAxNhRXn6v7l2ab3-74" value="" style="endArrow=classic;html=1;rounded=0;exitX=1;exitY=0.5;exitDx=0;exitDy=0;exitPerimeter=0;entryX=0;entryY=0.5;entryDx=0;entryDy=0;entryPerimeter=0;" parent="06xptAxNhRXn6v7l2ab3-40" source="06xptAxNhRXn6v7l2ab3-71" target="06xptAxNhRXn6v7l2ab3-72" edge="1">
          <mxGeometry width="50" height="50" relative="1" as="geometry">
            <mxPoint x="2520" y="318.05" as="sourcePoint" />
            <mxPoint x="2570" y="268.05" as="targetPoint" />
          </mxGeometry>
        </mxCell>
        <mxCell id="06xptAxNhRXn6v7l2ab3-75" value="Появились ли&lt;div&gt;свободные места?&lt;/div&gt;" style="points=[[0.25,0.25,0],[0.5,0,0],[0.75,0.25,0],[1,0.5,0],[0.75,0.75,0],[0.5,1,0],[0.25,0.75,0],[0,0.5,0]];shape=mxgraph.bpmn.gateway2;html=1;verticalLabelPosition=bottom;labelBackgroundColor=#ffffff;verticalAlign=top;align=center;perimeter=rhombusPerimeter;outlineConnect=0;outline=none;symbol=none;gwType=exclusive;" parent="06xptAxNhRXn6v7l2ab3-40" vertex="1">
          <mxGeometry x="2710" y="269.94" width="50" height="50" as="geometry" />
        </mxCell>
        <mxCell id="06xptAxNhRXn6v7l2ab3-76" value="" style="endArrow=classic;html=1;rounded=0;entryX=0;entryY=0.5;entryDx=0;entryDy=0;entryPerimeter=0;exitX=1;exitY=0.5;exitDx=0;exitDy=0;exitPerimeter=0;" parent="06xptAxNhRXn6v7l2ab3-40" source="06xptAxNhRXn6v7l2ab3-72" target="06xptAxNhRXn6v7l2ab3-75" edge="1">
          <mxGeometry width="50" height="50" relative="1" as="geometry">
            <mxPoint x="2480" y="338.05" as="sourcePoint" />
            <mxPoint x="2530" y="288.05" as="targetPoint" />
          </mxGeometry>
        </mxCell>
        <mxCell id="06xptAxNhRXn6v7l2ab3-77" value="" style="endArrow=classic;html=1;rounded=0;entryX=0;entryY=0.5;entryDx=0;entryDy=0;entryPerimeter=0;exitX=1;exitY=0.5;exitDx=0;exitDy=0;exitPerimeter=0;" parent="06xptAxNhRXn6v7l2ab3-40" source="06xptAxNhRXn6v7l2ab3-75" target="06xptAxNhRXn6v7l2ab3-73" edge="1">
          <mxGeometry width="50" height="50" relative="1" as="geometry">
            <mxPoint x="2480" y="338.05" as="sourcePoint" />
            <mxPoint x="2530" y="288.05" as="targetPoint" />
          </mxGeometry>
        </mxCell>
        <mxCell id="06xptAxNhRXn6v7l2ab3-78" value="Нет" style="edgeLabel;html=1;align=center;verticalAlign=middle;resizable=0;points=[];" parent="06xptAxNhRXn6v7l2ab3-77" vertex="1" connectable="0">
          <mxGeometry x="0.2599" y="2" relative="1" as="geometry">
            <mxPoint as="offset" />
          </mxGeometry>
        </mxCell>
        <mxCell id="06xptAxNhRXn6v7l2ab3-79" value="Есть ли заявки в&lt;div&gt;листе ожидания?&lt;/div&gt;" style="points=[[0.25,0.25,0],[0.5,0,0],[0.75,0.25,0],[1,0.5,0],[0.75,0.75,0],[0.5,1,0],[0.25,0.75,0],[0,0.5,0]];shape=mxgraph.bpmn.gateway2;html=1;verticalLabelPosition=bottom;labelBackgroundColor=#ffffff;verticalAlign=top;align=center;perimeter=rhombusPerimeter;outlineConnect=0;outline=none;symbol=none;gwType=exclusive;" parent="06xptAxNhRXn6v7l2ab3-40" vertex="1">
          <mxGeometry x="2710" y="139.54999999999998" width="50" height="50" as="geometry" />
        </mxCell>
        <mxCell id="06xptAxNhRXn6v7l2ab3-81" value="" style="endArrow=classic;html=1;rounded=0;exitX=0.5;exitY=1;exitDx=0;exitDy=0;exitPerimeter=0;edgeStyle=orthogonalEdgeStyle;" parent="06xptAxNhRXn6v7l2ab3-40" source="06xptAxNhRXn6v7l2ab3-68" target="p2fJr4ID9eZUpb8ZtOoU-1" edge="1">
          <mxGeometry width="50" height="50" relative="1" as="geometry">
            <mxPoint x="1610" y="188.04999999999998" as="sourcePoint" />
            <mxPoint x="1660" y="170.9399999999996" as="targetPoint" />
            <Array as="points">
              <mxPoint x="1660" y="157" />
              <mxPoint x="1890" y="157" />
            </Array>
          </mxGeometry>
        </mxCell>
        <mxCell id="06xptAxNhRXn6v7l2ab3-82" value="" style="endArrow=classic;html=1;rounded=0;exitX=0.5;exitY=0;exitDx=0;exitDy=0;exitPerimeter=0;edgeStyle=orthogonalEdgeStyle;" parent="06xptAxNhRXn6v7l2ab3-40" source="06xptAxNhRXn6v7l2ab3-79" target="p2fJr4ID9eZUpb8ZtOoU-1" edge="1">
          <mxGeometry width="50" height="50" relative="1" as="geometry">
            <mxPoint x="2160" y="268.55" as="sourcePoint" />
            <mxPoint x="1900" y="177" as="targetPoint" />
            <Array as="points">
              <mxPoint x="2735" y="127" />
              <mxPoint x="1900" y="127" />
            </Array>
          </mxGeometry>
        </mxCell>
        <mxCell id="06xptAxNhRXn6v7l2ab3-83" value="Да" style="edgeLabel;html=1;align=center;verticalAlign=middle;resizable=0;points=[];" parent="06xptAxNhRXn6v7l2ab3-82" vertex="1" connectable="0">
          <mxGeometry x="-0.7804" relative="1" as="geometry">
            <mxPoint x="9" as="offset" />
          </mxGeometry>
        </mxCell>
        <mxCell id="06xptAxNhRXn6v7l2ab3-84" value="" style="endArrow=classic;html=1;rounded=0;exitX=0;exitY=0.5;exitDx=0;exitDy=0;exitPerimeter=0;entryX=0.5;entryY=1;entryDx=0;entryDy=0;entryPerimeter=0;edgeStyle=orthogonalEdgeStyle;" parent="06xptAxNhRXn6v7l2ab3-40" source="06xptAxNhRXn6v7l2ab3-79" target="06xptAxNhRXn6v7l2ab3-42" edge="1">
          <mxGeometry width="50" height="50" relative="1" as="geometry">
            <mxPoint x="2390" y="297" as="sourcePoint" />
            <mxPoint x="2440" y="247" as="targetPoint" />
            <Array as="points">
              <mxPoint x="2250" y="165" />
              <mxPoint x="2250" y="397" />
              <mxPoint x="221" y="397" />
            </Array>
          </mxGeometry>
        </mxCell>
        <mxCell id="06xptAxNhRXn6v7l2ab3-85" value="Нет" style="edgeLabel;html=1;align=center;verticalAlign=middle;resizable=0;points=[];" parent="06xptAxNhRXn6v7l2ab3-84" vertex="1" connectable="0">
          <mxGeometry x="-0.9614" y="-1" relative="1" as="geometry">
            <mxPoint x="-5" y="1" as="offset" />
          </mxGeometry>
        </mxCell>
        <mxCell id="06xptAxNhRXn6v7l2ab3-86" value="Набор окончен" style="text;html=1;align=center;verticalAlign=middle;whiteSpace=wrap;rounded=0;" parent="06xptAxNhRXn6v7l2ab3-40" vertex="1">
          <mxGeometry x="2832.25" y="243.94000000000005" width="98.5" height="30" as="geometry" />
        </mxCell>
        <mxCell id="p2fJr4ID9eZUpb8ZtOoU-1" value="" style="points=[[0.145,0.145,0],[0.5,0,0],[0.855,0.145,0],[1,0.5,0],[0.855,0.855,0],[0.5,1,0],[0.145,0.855,0],[0,0.5,0]];shape=mxgraph.bpmn.event;html=1;verticalLabelPosition=bottom;labelBackgroundColor=#ffffff;verticalAlign=top;align=center;perimeter=ellipsePerimeter;outlineConnect=0;aspect=fixed;outline=standard;symbol=timer;" parent="06xptAxNhRXn6v7l2ab3-40" vertex="1">
          <mxGeometry x="1870" y="187.00000000000003" width="50" height="50" as="geometry" />
        </mxCell>
        <mxCell id="p2fJr4ID9eZUpb8ZtOoU-3" value="" style="endArrow=classic;html=1;rounded=0;entryX=0.721;entryY=0.015;entryDx=0;entryDy=0;entryPerimeter=0;" parent="06xptAxNhRXn6v7l2ab3-40" source="p2fJr4ID9eZUpb8ZtOoU-1" target="06xptAxNhRXn6v7l2ab3-69" edge="1">
          <mxGeometry width="50" height="50" relative="1" as="geometry">
            <mxPoint x="1800" y="257" as="sourcePoint" />
            <mxPoint x="1850" y="207" as="targetPoint" />
          </mxGeometry>
        </mxCell>
        <mxCell id="p2fJr4ID9eZUpb8ZtOoU-10" value="Исправить заявку" style="points=[[0.25,0,0],[0.5,0,0],[0.75,0,0],[1,0.25,0],[1,0.5,0],[1,0.75,0],[0.75,1,0],[0.5,1,0],[0.25,1,0],[0,0.75,0],[0,0.5,0],[0,0.25,0]];shape=mxgraph.bpmn.task2;whiteSpace=wrap;rectStyle=rounded;size=10;html=1;container=1;expand=0;collapsible=0;taskMarker=abstract;" parent="06xptAxNhRXn6v7l2ab3-40" vertex="1">
          <mxGeometry x="1218.25" y="-170" width="122" height="81" as="geometry" />
        </mxCell>
        <mxCell id="p2fJr4ID9eZUpb8ZtOoU-12" value="" style="points=[[0.145,0.145,0],[0.5,0,0],[0.855,0.145,0],[1,0.5,0],[0.855,0.855,0],[0.5,1,0],[0.145,0.855,0],[0,0.5,0]];shape=mxgraph.bpmn.event;html=1;verticalLabelPosition=bottom;labelBackgroundColor=#ffffff;verticalAlign=top;align=center;perimeter=ellipsePerimeter;outlineConnect=0;aspect=fixed;outline=end;symbol=terminate2;" parent="06xptAxNhRXn6v7l2ab3-40" vertex="1">
          <mxGeometry x="1290" y="-225.5" width="43" height="43" as="geometry" />
        </mxCell>
        <mxCell id="p2fJr4ID9eZUpb8ZtOoU-13" value="Отзыв заявки" style="text;html=1;align=center;verticalAlign=middle;whiteSpace=wrap;rounded=0;" parent="06xptAxNhRXn6v7l2ab3-40" vertex="1">
          <mxGeometry x="1262.25" y="-255.5" width="98.5" height="30" as="geometry" />
        </mxCell>
        <mxCell id="06xptAxNhRXn6v7l2ab3-46" value="" style="edgeStyle=elbowEdgeStyle;fontSize=12;html=1;endArrow=blockThin;endFill=1;rounded=0;entryX=0;entryY=0.5;entryDx=0;entryDy=0;entryPerimeter=0;" parent="06xptAxNhRXn6v7l2ab3-40" target="06xptAxNhRXn6v7l2ab3-45" edge="1">
          <mxGeometry width="160" relative="1" as="geometry">
            <mxPoint x="840" y="311" as="sourcePoint" />
            <mxPoint x="1057" y="-101.56" as="targetPoint" />
          </mxGeometry>
        </mxCell>
        <mxCell id="p2fJr4ID9eZUpb8ZtOoU-8" value="Есть желание&amp;nbsp;&lt;div&gt;исправить заявку?&lt;/div&gt;" style="points=[[0.25,0.25,0],[0.5,0,0],[0.75,0.25,0],[1,0.5,0],[0.75,0.75,0],[0.5,1,0],[0.25,0.75,0],[0,0.5,0]];shape=mxgraph.bpmn.gateway2;html=1;verticalLabelPosition=bottom;labelBackgroundColor=#ffffff;verticalAlign=top;align=center;perimeter=rhombusPerimeter;outlineConnect=0;outline=none;symbol=none;gwType=exclusive;" parent="06xptAxNhRXn6v7l2ab3-40" vertex="1">
          <mxGeometry x="1120" y="-146.3900000000002" width="50" height="50" as="geometry" />
        </mxCell>
        <mxCell id="06xptAxNhRXn6v7l2ab3-45" value="Данные корректны?" style="points=[[0.25,0.25,0],[0.5,0,0],[0.75,0.25,0],[1,0.5,0],[0.75,0.75,0],[0.5,1,0],[0.25,0.75,0],[0,0.5,0]];shape=mxgraph.bpmn.gateway2;html=1;verticalLabelPosition=bottom;labelBackgroundColor=#ffffff;verticalAlign=top;align=center;perimeter=rhombusPerimeter;outlineConnect=0;outline=none;symbol=none;gwType=exclusive;" parent="06xptAxNhRXn6v7l2ab3-40" vertex="1">
          <mxGeometry x="880" y="285.55" width="50" height="50" as="geometry" />
        </mxCell>
        <mxCell id="06xptAxNhRXn6v7l2ab3-47" value="" style="points=[[0.25,0.25,0],[0.5,0,0],[0.75,0.25,0],[1,0.5,0],[0.75,0.75,0],[0.5,1,0],[0.25,0.75,0],[0,0.5,0]];shape=mxgraph.bpmn.gateway2;html=1;verticalLabelPosition=bottom;labelBackgroundColor=#ffffff;verticalAlign=top;align=center;perimeter=rhombusPerimeter;outlineConnect=0;outline=none;symbol=none;gwType=exclusive;" parent="06xptAxNhRXn6v7l2ab3-40" vertex="1">
          <mxGeometry x="950" y="155.66" width="50" height="50" as="geometry" />
        </mxCell>
        <mxCell id="06xptAxNhRXn6v7l2ab3-48" value="Исправить ошибки" style="points=[[0.25,0,0],[0.5,0,0],[0.75,0,0],[1,0.25,0],[1,0.5,0],[1,0.75,0],[0.75,1,0],[0.5,1,0],[0.25,1,0],[0,0.75,0],[0,0.5,0],[0,0.25,0]];shape=mxgraph.bpmn.task2;whiteSpace=wrap;rectStyle=rounded;size=10;html=1;container=1;expand=0;collapsible=0;taskMarker=abstract;" parent="06xptAxNhRXn6v7l2ab3-40" vertex="1">
          <mxGeometry x="1080" y="140.16" width="122" height="81" as="geometry" />
        </mxCell>
        <mxCell id="06xptAxNhRXn6v7l2ab3-49" value="" style="edgeStyle=elbowEdgeStyle;fontSize=12;html=1;endArrow=blockThin;endFill=1;rounded=0;exitX=1;exitY=0.5;exitDx=0;exitDy=0;exitPerimeter=0;entryX=0;entryY=0.5;entryDx=0;entryDy=0;entryPerimeter=0;elbow=vertical;" parent="06xptAxNhRXn6v7l2ab3-40" source="06xptAxNhRXn6v7l2ab3-47" target="06xptAxNhRXn6v7l2ab3-48" edge="1">
          <mxGeometry width="160" relative="1" as="geometry">
            <mxPoint x="733" y="35.470000000000006" as="sourcePoint" />
            <mxPoint x="1100" y="181.66" as="targetPoint" />
          </mxGeometry>
        </mxCell>
        <mxCell id="06xptAxNhRXn6v7l2ab3-50" value="Да" style="edgeLabel;html=1;align=center;verticalAlign=middle;resizable=0;points=[];" parent="06xptAxNhRXn6v7l2ab3-49" vertex="1" connectable="0">
          <mxGeometry x="-0.2059" y="1" relative="1" as="geometry">
            <mxPoint as="offset" />
          </mxGeometry>
        </mxCell>
        <mxCell id="06xptAxNhRXn6v7l2ab3-51" value="" style="edgeStyle=orthogonalEdgeStyle;fontSize=12;html=1;endArrow=blockThin;endFill=1;rounded=0;exitX=0.5;exitY=0;exitDx=0;exitDy=0;exitPerimeter=0;entryX=0.5;entryY=1;entryDx=0;entryDy=0;entryPerimeter=0;" parent="06xptAxNhRXn6v7l2ab3-40" source="06xptAxNhRXn6v7l2ab3-45" target="06xptAxNhRXn6v7l2ab3-47" edge="1">
          <mxGeometry width="160" relative="1" as="geometry">
            <mxPoint x="900" y="302.47" as="sourcePoint" />
            <mxPoint x="969" y="63.470000000000006" as="targetPoint" />
          </mxGeometry>
        </mxCell>
        <mxCell id="06xptAxNhRXn6v7l2ab3-52" value="Нет" style="edgeLabel;html=1;align=center;verticalAlign=middle;resizable=0;points=[];" parent="06xptAxNhRXn6v7l2ab3-51" vertex="1" connectable="0">
          <mxGeometry x="-0.7892" y="1" relative="1" as="geometry">
            <mxPoint as="offset" />
          </mxGeometry>
        </mxCell>
        <mxCell id="06xptAxNhRXn6v7l2ab3-53" value="Text" style="edgeLabel;html=1;align=center;verticalAlign=middle;resizable=0;points=[];" parent="06xptAxNhRXn6v7l2ab3-51" vertex="1" connectable="0">
          <mxGeometry x="0.7508" y="1" relative="1" as="geometry">
            <mxPoint as="offset" />
          </mxGeometry>
        </mxCell>
        <mxCell id="06xptAxNhRXn6v7l2ab3-54" value="Данные можно исправить без&lt;div&gt;родителей поступающего ребенка?&lt;/div&gt;" style="edgeLabel;html=1;align=center;verticalAlign=middle;resizable=0;points=[];" parent="06xptAxNhRXn6v7l2ab3-51" vertex="1" connectable="0">
          <mxGeometry x="0.7508" relative="1" as="geometry">
            <mxPoint as="offset" />
          </mxGeometry>
        </mxCell>
        <mxCell id="06xptAxNhRXn6v7l2ab3-55" value="Отправить родителям уведомление о том, что нужно исправить" style="points=[[0.25,0,0],[0.5,0,0],[0.75,0,0],[1,0.25,0],[1,0.5,0],[1,0.75,0],[0.75,1,0],[0.5,1,0],[0.25,1,0],[0,0.75,0],[0,0.5,0],[0,0.25,0]];shape=mxgraph.bpmn.task2;whiteSpace=wrap;rectStyle=rounded;size=10;html=1;container=1;expand=0;collapsible=0;taskMarker=abstract;" parent="06xptAxNhRXn6v7l2ab3-40" vertex="1">
          <mxGeometry x="1080" y="18.160000000000004" width="122" height="81" as="geometry" />
        </mxCell>
        <mxCell id="p2fJr4ID9eZUpb8ZtOoU-29" value="" style="ellipse;shape=doubleEllipse;whiteSpace=wrap;html=1;aspect=fixed;" parent="06xptAxNhRXn6v7l2ab3-55" vertex="1">
          <mxGeometry x="98.25" y="-11.160000000000082" width="40" height="40" as="geometry" />
        </mxCell>
        <mxCell id="p2fJr4ID9eZUpb8ZtOoU-30" value="" style="edgeStyle=isometricEdgeStyle;endArrow=none;html=1;rounded=0;fontStyle=1" parent="06xptAxNhRXn6v7l2ab3-55" edge="1">
          <mxGeometry width="50" height="100" relative="1" as="geometry">
            <mxPoint x="105.34999999999991" y="22.569999999999915" as="sourcePoint" />
            <mxPoint x="131.1500000000001" y="-4.8800000000001305" as="targetPoint" />
          </mxGeometry>
        </mxCell>
        <mxCell id="06xptAxNhRXn6v7l2ab3-56" value="" style="edgeStyle=elbowEdgeStyle;fontSize=12;html=1;endArrow=blockThin;endFill=1;rounded=0;exitX=0.5;exitY=0;exitDx=0;exitDy=0;exitPerimeter=0;elbow=vertical;entryX=0.5;entryY=1;entryDx=0;entryDy=0;entryPerimeter=0;" parent="06xptAxNhRXn6v7l2ab3-40" source="06xptAxNhRXn6v7l2ab3-47" target="06xptAxNhRXn6v7l2ab3-55" edge="1">
          <mxGeometry width="160" relative="1" as="geometry">
            <mxPoint x="1117" y="-150.83999999999997" as="sourcePoint" />
            <mxPoint x="1065" y="-252.84" as="targetPoint" />
          </mxGeometry>
        </mxCell>
        <mxCell id="06xptAxNhRXn6v7l2ab3-57" value="Нет" style="edgeLabel;html=1;align=center;verticalAlign=middle;resizable=0;points=[];" parent="06xptAxNhRXn6v7l2ab3-56" vertex="1" connectable="0">
          <mxGeometry x="-0.364" relative="1" as="geometry">
            <mxPoint as="offset" />
          </mxGeometry>
        </mxCell>
        <mxCell id="06xptAxNhRXn6v7l2ab3-58" value="Проверить наличие свободных мест в группах" style="points=[[0.25,0,0],[0.5,0,0],[0.75,0,0],[1,0.25,0],[1,0.5,0],[1,0.75,0],[0.75,1,0],[0.5,1,0],[0.25,1,0],[0,0.75,0],[0,0.5,0],[0,0.25,0]];shape=mxgraph.bpmn.task2;whiteSpace=wrap;rectStyle=rounded;size=10;html=1;container=1;expand=0;collapsible=0;taskMarker=abstract;" parent="06xptAxNhRXn6v7l2ab3-40" vertex="1">
          <mxGeometry x="1240" y="270.0499999999999" width="120" height="81" as="geometry" />
        </mxCell>
        <mxCell id="06xptAxNhRXn6v7l2ab3-59" value="" style="endArrow=classic;html=1;rounded=0;exitX=1;exitY=0.5;exitDx=0;exitDy=0;exitPerimeter=0;entryX=0;entryY=0.5;entryDx=0;entryDy=0;entryPerimeter=0;" parent="06xptAxNhRXn6v7l2ab3-40" source="06xptAxNhRXn6v7l2ab3-45" target="06xptAxNhRXn6v7l2ab3-58" edge="1">
          <mxGeometry width="50" height="50" relative="1" as="geometry">
            <mxPoint x="1150" y="297.66" as="sourcePoint" />
            <mxPoint x="1200" y="247.66000000000003" as="targetPoint" />
          </mxGeometry>
        </mxCell>
        <mxCell id="06xptAxNhRXn6v7l2ab3-60" value="Да" style="edgeLabel;html=1;align=center;verticalAlign=middle;resizable=0;points=[];" parent="06xptAxNhRXn6v7l2ab3-59" vertex="1" connectable="0">
          <mxGeometry x="0.1158" y="-2" relative="1" as="geometry">
            <mxPoint as="offset" />
          </mxGeometry>
        </mxCell>
        <mxCell id="06xptAxNhRXn6v7l2ab3-64" value="" style="endArrow=classic;html=1;rounded=0;exitX=1;exitY=0.5;exitDx=0;exitDy=0;exitPerimeter=0;entryX=0;entryY=0.25;entryDx=0;entryDy=0;entryPerimeter=0;edgeStyle=elbowEdgeStyle;" parent="06xptAxNhRXn6v7l2ab3-40" source="06xptAxNhRXn6v7l2ab3-48" target="06xptAxNhRXn6v7l2ab3-58" edge="1">
          <mxGeometry width="50" height="50" relative="1" as="geometry">
            <mxPoint x="1230" y="217.16" as="sourcePoint" />
            <mxPoint x="1280" y="167.16" as="targetPoint" />
          </mxGeometry>
        </mxCell>
        <mxCell id="06xptAxNhRXn6v7l2ab3-109" value="" style="endArrow=blockThin;html=1;labelPosition=left;verticalLabelPosition=middle;align=right;verticalAlign=middle;dashed=1;dashPattern=8 4;endFill=0;startArrow=oval;startFill=0;endSize=6;startSize=4;rounded=0;exitX=0.5;exitY=0;exitDx=0;exitDy=0;exitPerimeter=0;" parent="06xptAxNhRXn6v7l2ab3-40" source="06xptAxNhRXn6v7l2ab3-55" edge="1">
          <mxGeometry relative="1" as="geometry">
            <mxPoint x="1018" y="162.11" as="sourcePoint" />
            <mxPoint x="1141" y="-63.389999999999986" as="targetPoint" />
          </mxGeometry>
        </mxCell>
        <mxCell id="06xptAxNhRXn6v7l2ab3-110" value="Уведомление об&lt;div&gt;исправлении заявки&lt;/div&gt;" style="shape=message;html=1;outlineConnect=0;labelPosition=left;verticalLabelPosition=middle;align=right;verticalAlign=middle;spacingRight=5;labelBackgroundColor=#ffffff;" parent="06xptAxNhRXn6v7l2ab3-109" vertex="1">
          <mxGeometry width="24" height="16" relative="1" as="geometry">
            <mxPoint x="8" y="-11" as="offset" />
          </mxGeometry>
        </mxCell>
        <mxCell id="p2fJr4ID9eZUpb8ZtOoU-11" value="" style="endArrow=classic;html=1;rounded=0;entryX=-0.001;entryY=0.582;entryDx=0;entryDy=0;entryPerimeter=0;" parent="06xptAxNhRXn6v7l2ab3-40" source="p2fJr4ID9eZUpb8ZtOoU-8" target="p2fJr4ID9eZUpb8ZtOoU-10" edge="1">
          <mxGeometry width="50" height="50" relative="1" as="geometry">
            <mxPoint x="1140" y="-103" as="sourcePoint" />
            <mxPoint x="1190" y="-153" as="targetPoint" />
          </mxGeometry>
        </mxCell>
        <mxCell id="p2fJr4ID9eZUpb8ZtOoU-15" value="Да" style="edgeLabel;html=1;align=center;verticalAlign=middle;resizable=0;points=[];" parent="p2fJr4ID9eZUpb8ZtOoU-11" vertex="1" connectable="0">
          <mxGeometry x="-0.2247" relative="1" as="geometry">
            <mxPoint as="offset" />
          </mxGeometry>
        </mxCell>
        <mxCell id="p2fJr4ID9eZUpb8ZtOoU-14" value="" style="endArrow=classic;html=1;rounded=0;exitX=0.5;exitY=0;exitDx=0;exitDy=0;exitPerimeter=0;entryX=0;entryY=0.5;entryDx=0;entryDy=0;entryPerimeter=0;edgeStyle=orthogonalEdgeStyle;" parent="06xptAxNhRXn6v7l2ab3-40" source="p2fJr4ID9eZUpb8ZtOoU-8" target="p2fJr4ID9eZUpb8ZtOoU-12" edge="1">
          <mxGeometry width="50" height="50" relative="1" as="geometry">
            <mxPoint x="1140" y="-123" as="sourcePoint" />
            <mxPoint x="1190" y="-173" as="targetPoint" />
          </mxGeometry>
        </mxCell>
        <mxCell id="p2fJr4ID9eZUpb8ZtOoU-16" value="Нет" style="edgeLabel;html=1;align=center;verticalAlign=middle;resizable=0;points=[];" parent="p2fJr4ID9eZUpb8ZtOoU-14" vertex="1" connectable="0">
          <mxGeometry x="-0.7696" relative="1" as="geometry">
            <mxPoint as="offset" />
          </mxGeometry>
        </mxCell>
        <mxCell id="p2fJr4ID9eZUpb8ZtOoU-32" value="" style="points=[[0.145,0.145,0],[0.5,0,0],[0.855,0.145,0],[1,0.5,0],[0.855,0.855,0],[0.5,1,0],[0.145,0.855,0],[0,0.5,0]];shape=mxgraph.bpmn.event;html=1;verticalLabelPosition=bottom;labelBackgroundColor=#ffffff;verticalAlign=top;align=center;perimeter=ellipsePerimeter;outlineConnect=0;aspect=fixed;outline=end;symbol=terminate2;" parent="06xptAxNhRXn6v7l2ab3-40" vertex="1">
          <mxGeometry x="1289.25" y="37.000000000000085" width="43" height="43" as="geometry" />
        </mxCell>
        <mxCell id="p2fJr4ID9eZUpb8ZtOoU-33" value="Отклонение заявки" style="text;html=1;align=center;verticalAlign=middle;whiteSpace=wrap;rounded=0;" parent="06xptAxNhRXn6v7l2ab3-40" vertex="1">
          <mxGeometry x="1261.5" y="7.000000000000082" width="98.5" height="30" as="geometry" />
        </mxCell>
        <mxCell id="p2fJr4ID9eZUpb8ZtOoU-34" value="" style="endArrow=classic;html=1;rounded=0;entryX=0;entryY=0.5;entryDx=0;entryDy=0;entryPerimeter=0;edgeStyle=orthogonalEdgeStyle;" parent="06xptAxNhRXn6v7l2ab3-40" target="p2fJr4ID9eZUpb8ZtOoU-32" edge="1">
          <mxGeometry width="50" height="50" relative="1" as="geometry">
            <mxPoint x="1220" y="27" as="sourcePoint" />
            <mxPoint x="1290" y="77" as="targetPoint" />
            <Array as="points">
              <mxPoint x="1270" y="27" />
              <mxPoint x="1270" y="58" />
            </Array>
          </mxGeometry>
        </mxCell>
        <mxCell id="MphFoIVafv5gBIbXlF-x-1" value="заявка подлежит исправлению уже в 4 раз" style="text;html=1;align=center;verticalAlign=middle;whiteSpace=wrap;rounded=0;" parent="06xptAxNhRXn6v7l2ab3-40" vertex="1">
          <mxGeometry x="1202" y="43.5" width="81.75" height="30" as="geometry" />
        </mxCell>
        <mxCell id="BJz2wfOi5E1aL7Tm9JvD-1" value="список вакантных мест в группах" style="text;html=1;align=center;verticalAlign=middle;whiteSpace=wrap;rounded=0;" vertex="1" parent="06xptAxNhRXn6v7l2ab3-40">
          <mxGeometry x="30" y="155" width="90" height="24.06" as="geometry" />
        </mxCell>
        <mxCell id="06xptAxNhRXn6v7l2ab3-88" value="Тренеры" style="swimlane;html=1;startSize=20;horizontal=0;" parent="06xptAxNhRXn6v7l2ab3-1" vertex="1">
          <mxGeometry x="20" y="746.89" width="2940" height="170.00000000000045" as="geometry" />
        </mxCell>
        <mxCell id="06xptAxNhRXn6v7l2ab3-89" value="Ознакомление с датой и временем проведения индивидуального отбора" style="points=[[0.25,0,0],[0.5,0,0],[0.75,0,0],[1,0.25,0],[1,0.5,0],[1,0.75,0],[0.75,1,0],[0.5,1,0],[0.25,1,0],[0,0.75,0],[0,0.5,0],[0,0.25,0]];shape=mxgraph.bpmn.task2;whiteSpace=wrap;rectStyle=rounded;size=10;html=1;container=1;expand=0;collapsible=0;taskMarker=abstract;" parent="06xptAxNhRXn6v7l2ab3-88" vertex="1">
          <mxGeometry x="1796" y="74" width="130" height="80" as="geometry" />
        </mxCell>
        <mxCell id="06xptAxNhRXn6v7l2ab3-90" value="" style="endArrow=blockThin;html=1;labelPosition=left;verticalLabelPosition=middle;align=right;verticalAlign=middle;dashed=1;dashPattern=8 4;endFill=0;startArrow=oval;startFill=0;endSize=6;startSize=4;rounded=0;exitX=0.462;exitY=1;exitDx=0;exitDy=0;exitPerimeter=0;" parent="06xptAxNhRXn6v7l2ab3-89" source="06xptAxNhRXn6v7l2ab3-69" edge="1">
          <mxGeometry relative="1" as="geometry">
            <mxPoint x="63.5" y="-87" as="sourcePoint" />
            <mxPoint x="64" as="targetPoint" />
          </mxGeometry>
        </mxCell>
        <mxCell id="06xptAxNhRXn6v7l2ab3-91" value="Уведомление&lt;div&gt;&lt;span style=&quot;background-color: light-dark(rgb(255, 255, 255), rgb(18, 18, 18)); color: light-dark(rgb(0, 0, 0), rgb(255, 255, 255));&quot;&gt;о&amp;nbsp;&lt;/span&gt;&lt;span style=&quot;color: light-dark(rgb(0, 0, 0), rgb(255, 255, 255)); background-color: light-dark(rgb(255, 255, 255), rgb(18, 18, 18));&quot;&gt;проведении&amp;nbsp;&lt;/span&gt;&lt;/div&gt;&lt;div&gt;&lt;span style=&quot;color: light-dark(rgb(0, 0, 0), rgb(255, 255, 255)); background-color: light-dark(rgb(255, 255, 255), rgb(18, 18, 18));&quot;&gt;отбора&lt;/span&gt;&lt;/div&gt;" style="shape=message;html=1;outlineConnect=0;labelPosition=left;verticalLabelPosition=middle;align=right;verticalAlign=middle;spacingRight=5;labelBackgroundColor=#ffffff;" parent="06xptAxNhRXn6v7l2ab3-90" vertex="1">
          <mxGeometry width="24" height="16" relative="1" as="geometry">
            <mxPoint x="5" y="23" as="offset" />
          </mxGeometry>
        </mxCell>
        <mxCell id="06xptAxNhRXn6v7l2ab3-92" value="Проведение индивидуального отбора" style="points=[[0.25,0,0],[0.5,0,0],[0.75,0,0],[1,0.25,0],[1,0.5,0],[1,0.75,0],[0.75,1,0],[0.5,1,0],[0.25,1,0],[0,0.75,0],[0,0.5,0],[0,0.25,0]];shape=mxgraph.bpmn.task2;whiteSpace=wrap;rectStyle=rounded;size=10;html=1;container=1;expand=0;collapsible=0;taskMarker=abstract;" parent="06xptAxNhRXn6v7l2ab3-88" vertex="1">
          <mxGeometry x="2160" y="73.00000000000045" width="122" height="81" as="geometry" />
        </mxCell>
        <mxCell id="06xptAxNhRXn6v7l2ab3-93" value="" style="endArrow=classic;html=1;rounded=0;entryX=0;entryY=0.5;entryDx=0;entryDy=0;entryPerimeter=0;exitX=1;exitY=0.5;exitDx=0;exitDy=0;exitPerimeter=0;" parent="06xptAxNhRXn6v7l2ab3-88" source="06xptAxNhRXn6v7l2ab3-89" target="06xptAxNhRXn6v7l2ab3-92" edge="1">
          <mxGeometry width="50" height="50" relative="1" as="geometry">
            <mxPoint x="1810" y="244" as="sourcePoint" />
            <mxPoint x="1860" y="194" as="targetPoint" />
          </mxGeometry>
        </mxCell>
        <mxCell id="06xptAxNhRXn6v7l2ab3-94" value="" style="endArrow=classic;html=1;rounded=0;exitX=1;exitY=0.5;exitDx=0;exitDy=0;exitPerimeter=0;entryX=0;entryY=0.5;entryDx=0;entryDy=0;entryPerimeter=0;" parent="06xptAxNhRXn6v7l2ab3-88" source="06xptAxNhRXn6v7l2ab3-92" edge="1">
          <mxGeometry width="50" height="50" relative="1" as="geometry">
            <mxPoint x="2270" y="34" as="sourcePoint" />
            <mxPoint x="2350" y="114.00000000000045" as="targetPoint" />
          </mxGeometry>
        </mxCell>
        <mxCell id="06xptAxNhRXn6v7l2ab3-95" value="Передача протокола с результатами отбора" style="points=[[0.25,0,0],[0.5,0,0],[0.75,0,0],[1,0.25,0],[1,0.5,0],[1,0.75,0],[0.75,1,0],[0.5,1,0],[0.25,1,0],[0,0.75,0],[0,0.5,0],[0,0.25,0]];shape=mxgraph.bpmn.task2;whiteSpace=wrap;rectStyle=rounded;size=10;html=1;container=1;expand=0;collapsible=0;taskMarker=abstract;" parent="06xptAxNhRXn6v7l2ab3-88" vertex="1">
          <mxGeometry x="2350" y="74.00000000000045" width="122" height="81" as="geometry" />
        </mxCell>
        <mxCell id="06xptAxNhRXn6v7l2ab3-96" value="Поступающие дети" style="swimlane;html=1;startSize=20;horizontal=0;" parent="06xptAxNhRXn6v7l2ab3-1" vertex="1">
          <mxGeometry x="20" y="916.8900000000004" width="2940" height="143" as="geometry" />
        </mxCell>
        <mxCell id="06xptAxNhRXn6v7l2ab3-97" value="Есть ли желание заниматься&lt;div&gt;&lt;span style=&quot;background-color: light-dark(rgb(255, 255, 255), rgb(18, 18, 18)); color: light-dark(rgb(0, 0, 0), rgb(255, 255, 255));&quot;&gt;спортивной акробатикой?&lt;/span&gt;&lt;/div&gt;" style="points=[[0.25,0.25,0],[0.5,0,0],[0.75,0.25,0],[1,0.5,0],[0.75,0.75,0],[0.5,1,0],[0.25,0.75,0],[0,0.5,0]];shape=mxgraph.bpmn.gateway2;html=1;verticalLabelPosition=bottom;labelBackgroundColor=#ffffff;verticalAlign=top;align=center;perimeter=rhombusPerimeter;outlineConnect=0;outline=none;symbol=none;gwType=exclusive;" parent="06xptAxNhRXn6v7l2ab3-96" vertex="1">
          <mxGeometry x="490" y="29" width="50" height="50" as="geometry" />
        </mxCell>
        <mxCell id="06xptAxNhRXn6v7l2ab3-98" value="" style="points=[[0.145,0.145,0],[0.5,0,0],[0.855,0.145,0],[1,0.5,0],[0.855,0.855,0],[0.5,1,0],[0.145,0.855,0],[0,0.5,0]];shape=mxgraph.bpmn.event;html=1;verticalLabelPosition=bottom;labelBackgroundColor=#ffffff;verticalAlign=top;align=center;perimeter=ellipsePerimeter;outlineConnect=0;aspect=fixed;outline=end;symbol=terminate2;" parent="06xptAxNhRXn6v7l2ab3-96" vertex="1">
          <mxGeometry x="600" y="89" width="43" height="43" as="geometry" />
        </mxCell>
        <mxCell id="06xptAxNhRXn6v7l2ab3-99" value="" style="endArrow=classic;html=1;rounded=0;exitX=0.75;exitY=0.75;exitDx=0;exitDy=0;exitPerimeter=0;entryX=0.5;entryY=0;entryDx=0;entryDy=0;entryPerimeter=0;edgeStyle=elbowEdgeStyle;elbow=vertical;" parent="06xptAxNhRXn6v7l2ab3-96" source="06xptAxNhRXn6v7l2ab3-97" target="06xptAxNhRXn6v7l2ab3-98" edge="1">
          <mxGeometry width="50" height="50" relative="1" as="geometry">
            <mxPoint x="670" y="44" as="sourcePoint" />
            <mxPoint x="720" y="-6" as="targetPoint" />
            <Array as="points">
              <mxPoint x="580" y="67" />
            </Array>
          </mxGeometry>
        </mxCell>
        <mxCell id="06xptAxNhRXn6v7l2ab3-100" value="Ознакомление с информацией о проведении отбора" style="points=[[0.25,0,0],[0.5,0,0],[0.75,0,0],[1,0.25,0],[1,0.5,0],[1,0.75,0],[0.75,1,0],[0.5,1,0],[0.25,1,0],[0,0.75,0],[0,0.5,0],[0,0.25,0]];shape=mxgraph.bpmn.task2;whiteSpace=wrap;rectStyle=rounded;size=10;html=1;container=1;expand=0;collapsible=0;taskMarker=abstract;" parent="06xptAxNhRXn6v7l2ab3-96" vertex="1">
          <mxGeometry x="1989" y="31.00000000000034" width="122" height="81" as="geometry" />
        </mxCell>
        <mxCell id="06xptAxNhRXn6v7l2ab3-101" value="Прохождение индивидуального отбора" style="points=[[0.25,0,0],[0.5,0,0],[0.75,0,0],[1,0.25,0],[1,0.5,0],[1,0.75,0],[0.75,1,0],[0.5,1,0],[0.25,1,0],[0,0.75,0],[0,0.5,0],[0,0.25,0]];shape=mxgraph.bpmn.task2;whiteSpace=wrap;rectStyle=rounded;size=10;html=1;container=1;expand=0;collapsible=0;taskMarker=abstract;" parent="06xptAxNhRXn6v7l2ab3-96" vertex="1">
          <mxGeometry x="2160" y="31.000000000000455" width="122" height="81" as="geometry" />
        </mxCell>
        <mxCell id="06xptAxNhRXn6v7l2ab3-102" value="" style="endArrow=classic;html=1;rounded=0;exitX=1;exitY=0.5;exitDx=0;exitDy=0;exitPerimeter=0;entryX=0;entryY=0.5;entryDx=0;entryDy=0;entryPerimeter=0;" parent="06xptAxNhRXn6v7l2ab3-96" source="06xptAxNhRXn6v7l2ab3-100" target="06xptAxNhRXn6v7l2ab3-101" edge="1">
          <mxGeometry width="50" height="50" relative="1" as="geometry">
            <mxPoint x="1980" y="44" as="sourcePoint" />
            <mxPoint x="2030" y="-6" as="targetPoint" />
          </mxGeometry>
        </mxCell>
        <mxCell id="06xptAxNhRXn6v7l2ab3-103" value="&lt;div style=&quot;&quot;&gt;&lt;span style=&quot;background-color: transparent; color: light-dark(rgb(0, 0, 0), rgb(255, 255, 255));&quot;&gt;Отказ ребенка&amp;nbsp;&lt;/span&gt;&lt;/div&gt;&lt;div style=&quot;&quot;&gt;&lt;span style=&quot;background-color: transparent; color: light-dark(rgb(0, 0, 0), rgb(255, 255, 255));&quot;&gt;от&amp;nbsp;&lt;/span&gt;&lt;span style=&quot;background-color: transparent; color: light-dark(rgb(0, 0, 0), rgb(255, 255, 255));&quot;&gt;подачи заявки&lt;/span&gt;&lt;/div&gt;" style="text;html=1;align=left;verticalAlign=middle;whiteSpace=wrap;rounded=0;" parent="06xptAxNhRXn6v7l2ab3-96" vertex="1">
          <mxGeometry x="630" y="63.109999999999545" width="98.5" height="30" as="geometry" />
        </mxCell>
        <mxCell id="06xptAxNhRXn6v7l2ab3-104" value="" style="endArrow=blockThin;html=1;labelPosition=left;verticalLabelPosition=middle;align=right;verticalAlign=middle;dashed=1;dashPattern=8 4;endFill=0;startArrow=oval;startFill=0;endSize=6;startSize=4;rounded=0;exitX=1;exitY=0.5;exitDx=0;exitDy=0;exitPerimeter=0;entryX=0.5;entryY=0;entryDx=0;entryDy=0;entryPerimeter=0;edgeStyle=orthogonalEdgeStyle;" parent="06xptAxNhRXn6v7l2ab3-1" source="06xptAxNhRXn6v7l2ab3-6" target="06xptAxNhRXn6v7l2ab3-97" edge="1">
          <mxGeometry relative="1" as="geometry">
            <mxPoint x="830" y="141" as="sourcePoint" />
            <mxPoint x="833" y="468" as="targetPoint" />
          </mxGeometry>
        </mxCell>
        <mxCell id="06xptAxNhRXn6v7l2ab3-105" value="Предложение о записи&lt;div&gt;в спортшколу&lt;/div&gt;" style="shape=message;html=1;outlineConnect=0;labelPosition=left;verticalLabelPosition=middle;align=right;verticalAlign=middle;spacingRight=5;labelBackgroundColor=#ffffff;" parent="06xptAxNhRXn6v7l2ab3-104" vertex="1">
          <mxGeometry width="24" height="16" relative="1" as="geometry">
            <mxPoint x="8" y="-107" as="offset" />
          </mxGeometry>
        </mxCell>
        <mxCell id="06xptAxNhRXn6v7l2ab3-106" value="Да" style="edgeLabel;html=1;align=center;verticalAlign=middle;resizable=0;points=[];" parent="06xptAxNhRXn6v7l2ab3-104" vertex="1" connectable="0">
          <mxGeometry x="-0.744" relative="1" as="geometry">
            <mxPoint as="offset" />
          </mxGeometry>
        </mxCell>
        <mxCell id="06xptAxNhRXn6v7l2ab3-107" value="" style="endArrow=blockThin;html=1;labelPosition=left;verticalLabelPosition=middle;align=right;verticalAlign=middle;dashed=1;dashPattern=8 4;endFill=0;startArrow=oval;startFill=0;endSize=6;startSize=4;rounded=0;exitX=1;exitY=0.5;exitDx=0;exitDy=0;exitPerimeter=0;edgeStyle=orthogonalEdgeStyle;entryX=0.5;entryY=1;entryDx=0;entryDy=0;entryPerimeter=0;" parent="06xptAxNhRXn6v7l2ab3-1" source="06xptAxNhRXn6v7l2ab3-97" target="06xptAxNhRXn6v7l2ab3-11" edge="1">
          <mxGeometry relative="1" as="geometry">
            <mxPoint x="530" y="725" as="sourcePoint" />
            <mxPoint x="640" y="190" as="targetPoint" />
          </mxGeometry>
        </mxCell>
        <mxCell id="06xptAxNhRXn6v7l2ab3-108" value="Согласие на&amp;nbsp;&lt;div&gt;занятие спортом&lt;/div&gt;" style="shape=message;html=1;outlineConnect=0;labelPosition=left;verticalLabelPosition=middle;align=right;verticalAlign=middle;spacingRight=5;labelBackgroundColor=#ffffff;" parent="06xptAxNhRXn6v7l2ab3-107" vertex="1">
          <mxGeometry width="24" height="16" relative="1" as="geometry">
            <mxPoint x="9" y="-9" as="offset" />
          </mxGeometry>
        </mxCell>
        <mxCell id="06xptAxNhRXn6v7l2ab3-113" value="" style="endArrow=blockThin;html=1;labelPosition=left;verticalLabelPosition=middle;align=right;verticalAlign=middle;dashed=1;dashPattern=8 4;endFill=0;startArrow=oval;startFill=0;endSize=6;startSize=4;rounded=0;entryX=0.319;entryY=0.003;entryDx=0;entryDy=0;entryPerimeter=0;exitX=0.335;exitY=1.002;exitDx=0;exitDy=0;exitPerimeter=0;" parent="06xptAxNhRXn6v7l2ab3-1" source="06xptAxNhRXn6v7l2ab3-12" target="06xptAxNhRXn6v7l2ab3-44" edge="1">
          <mxGeometry relative="1" as="geometry">
            <mxPoint x="800" y="170" as="sourcePoint" />
            <mxPoint x="720" y="9" as="targetPoint" />
          </mxGeometry>
        </mxCell>
        <mxCell id="06xptAxNhRXn6v7l2ab3-114" value="Заявка&amp;nbsp;&lt;div&gt;&lt;span style=&quot;background-color: light-dark(rgb(255, 255, 255), rgb(18, 18, 18)); color: light-dark(rgb(0, 0, 0), rgb(255, 255, 255));&quot;&gt;на&amp;nbsp;&lt;/span&gt;&lt;span style=&quot;background-color: light-dark(rgb(255, 255, 255), rgb(18, 18, 18)); color: light-dark(rgb(0, 0, 0), rgb(255, 255, 255));&quot;&gt;зачисление&lt;/span&gt;&lt;div&gt;&lt;div&gt;&lt;span style=&quot;background-color: light-dark(rgb(255, 255, 255), rgb(18, 18, 18)); color: light-dark(rgb(0, 0, 0), rgb(255, 255, 255));&quot;&gt;&amp;nbsp;ребенка&lt;/span&gt;&lt;/div&gt;&lt;/div&gt;&lt;/div&gt;" style="shape=message;html=1;outlineConnect=0;labelPosition=left;verticalLabelPosition=middle;align=right;verticalAlign=middle;spacingRight=5;labelBackgroundColor=#ffffff;" parent="06xptAxNhRXn6v7l2ab3-113" vertex="1">
          <mxGeometry width="24" height="16" relative="1" as="geometry">
            <mxPoint x="8" y="-1" as="offset" />
          </mxGeometry>
        </mxCell>
        <mxCell id="06xptAxNhRXn6v7l2ab3-115" value="" style="endArrow=blockThin;html=1;labelPosition=left;verticalLabelPosition=middle;align=right;verticalAlign=middle;dashed=1;dashPattern=8 4;endFill=0;startArrow=oval;startFill=0;endSize=6;startSize=4;rounded=0;exitX=0.5;exitY=0;exitDx=0;exitDy=0;exitPerimeter=0;" parent="06xptAxNhRXn6v7l2ab3-1" source="06xptAxNhRXn6v7l2ab3-61" edge="1">
          <mxGeometry relative="1" as="geometry">
            <mxPoint x="1495" y="531" as="sourcePoint" />
            <mxPoint x="1494" y="210" as="targetPoint" />
          </mxGeometry>
        </mxCell>
        <mxCell id="06xptAxNhRXn6v7l2ab3-116" value="Уведомление&lt;div&gt;&amp;nbsp;об&amp;nbsp;&lt;span style=&quot;background-color: light-dark(rgb(255, 255, 255), rgb(18, 18, 18)); color: light-dark(rgb(0, 0, 0), rgb(255, 255, 255));&quot;&gt;отсутствии&amp;nbsp;&lt;/span&gt;&lt;/div&gt;&lt;div&gt;&lt;span style=&quot;background-color: light-dark(rgb(255, 255, 255), rgb(18, 18, 18)); color: light-dark(rgb(0, 0, 0), rgb(255, 255, 255));&quot;&gt;свободных&amp;nbsp;&lt;/span&gt;&lt;span style=&quot;background-color: light-dark(rgb(255, 255, 255), rgb(18, 18, 18)); color: light-dark(rgb(0, 0, 0), rgb(255, 255, 255));&quot;&gt;мест&lt;/span&gt;&lt;/div&gt;" style="shape=message;html=1;outlineConnect=0;labelPosition=left;verticalLabelPosition=middle;align=right;verticalAlign=middle;spacingRight=5;labelBackgroundColor=#ffffff;" parent="06xptAxNhRXn6v7l2ab3-115" vertex="1">
          <mxGeometry width="24" height="16" relative="1" as="geometry">
            <mxPoint x="4" y="-19" as="offset" />
          </mxGeometry>
        </mxCell>
        <mxCell id="06xptAxNhRXn6v7l2ab3-117" value="" style="endArrow=blockThin;html=1;labelPosition=left;verticalLabelPosition=middle;align=right;verticalAlign=middle;dashed=1;dashPattern=8 4;endFill=0;startArrow=oval;startFill=0;endSize=6;startSize=4;rounded=0;exitX=0.531;exitY=1;exitDx=0;exitDy=0;exitPerimeter=0;entryX=0.5;entryY=0;entryDx=0;entryDy=0;entryPerimeter=0;" parent="06xptAxNhRXn6v7l2ab3-1" source="06xptAxNhRXn6v7l2ab3-25" target="06xptAxNhRXn6v7l2ab3-100" edge="1">
          <mxGeometry relative="1" as="geometry">
            <mxPoint x="2067" y="179.8900000000001" as="sourcePoint" />
            <mxPoint x="1989" y="188.8900000000001" as="targetPoint" />
          </mxGeometry>
        </mxCell>
        <mxCell id="06xptAxNhRXn6v7l2ab3-118" value="Информация о&lt;div&gt;проведении&lt;/div&gt;&lt;div&gt;отбора&lt;/div&gt;" style="shape=message;html=1;outlineConnect=0;labelPosition=left;verticalLabelPosition=middle;align=right;verticalAlign=middle;spacingRight=5;labelBackgroundColor=#ffffff;" parent="06xptAxNhRXn6v7l2ab3-117" vertex="1">
          <mxGeometry width="24" height="16" relative="1" as="geometry">
            <mxPoint x="8" y="41" as="offset" />
          </mxGeometry>
        </mxCell>
        <mxCell id="06xptAxNhRXn6v7l2ab3-119" value="" style="endArrow=blockThin;html=1;labelPosition=left;verticalLabelPosition=middle;align=right;verticalAlign=middle;dashed=1;dashPattern=8 4;endFill=0;startArrow=oval;startFill=0;endSize=6;startSize=4;rounded=0;exitX=0.5;exitY=0;exitDx=0;exitDy=0;exitPerimeter=0;entryX=0.5;entryY=1;entryDx=0;entryDy=0;entryPerimeter=0;" parent="06xptAxNhRXn6v7l2ab3-1" source="06xptAxNhRXn6v7l2ab3-95" target="06xptAxNhRXn6v7l2ab3-71" edge="1">
          <mxGeometry relative="1" as="geometry">
            <mxPoint x="2435" y="663.8905263157899" as="sourcePoint" />
            <mxPoint x="2431" y="650" as="targetPoint" />
          </mxGeometry>
        </mxCell>
        <mxCell id="06xptAxNhRXn6v7l2ab3-120" value="Протокол с&amp;nbsp;&lt;div&gt;результатами&amp;nbsp;&lt;/div&gt;&lt;div&gt;отбора&lt;/div&gt;" style="shape=message;html=1;outlineConnect=0;labelPosition=left;verticalLabelPosition=middle;align=right;verticalAlign=middle;spacingRight=5;labelBackgroundColor=#ffffff;" parent="06xptAxNhRXn6v7l2ab3-119" vertex="1">
          <mxGeometry width="24" height="16" relative="1" as="geometry">
            <mxPoint x="9" y="-40" as="offset" />
          </mxGeometry>
        </mxCell>
        <mxCell id="06xptAxNhRXn6v7l2ab3-121" value="" style="endArrow=block;html=1;rounded=0;exitX=0.5;exitY=0;exitDx=0;exitDy=0;exitPerimeter=0;entryX=0.5;entryY=1;entryDx=0;entryDy=0;entryPerimeter=0;dashed=1;endFill=0;" parent="06xptAxNhRXn6v7l2ab3-1" source="06xptAxNhRXn6v7l2ab3-101" target="06xptAxNhRXn6v7l2ab3-92" edge="1">
          <mxGeometry width="50" height="50" relative="1" as="geometry">
            <mxPoint x="2120" y="830" as="sourcePoint" />
            <mxPoint x="2170" y="780" as="targetPoint" />
          </mxGeometry>
        </mxCell>
        <mxCell id="06xptAxNhRXn6v7l2ab3-122" value="" style="endArrow=blockThin;html=1;labelPosition=left;verticalLabelPosition=middle;align=right;verticalAlign=middle;dashed=1;dashPattern=8 4;endFill=0;startArrow=oval;startFill=0;endSize=6;startSize=4;rounded=0;entryX=0.461;entryY=0.989;entryDx=0;entryDy=0;entryPerimeter=0;" parent="06xptAxNhRXn6v7l2ab3-1" target="06xptAxNhRXn6v7l2ab3-24" edge="1">
          <mxGeometry relative="1" as="geometry">
            <mxPoint x="1880" y="590" as="sourcePoint" />
            <mxPoint x="1880" y="210" as="targetPoint" />
          </mxGeometry>
        </mxCell>
        <mxCell id="06xptAxNhRXn6v7l2ab3-123" value="Уведомление&lt;div&gt;&amp;nbsp;о проведении&lt;/div&gt;&lt;div&gt;отбора&lt;/div&gt;" style="shape=message;html=1;outlineConnect=0;labelPosition=left;verticalLabelPosition=middle;align=right;verticalAlign=middle;spacingRight=5;labelBackgroundColor=#ffffff;" parent="06xptAxNhRXn6v7l2ab3-122" vertex="1">
          <mxGeometry width="24" height="16" relative="1" as="geometry">
            <mxPoint x="10" y="-97" as="offset" />
          </mxGeometry>
        </mxCell>
        <mxCell id="06xptAxNhRXn6v7l2ab3-125" value="" style="endArrow=blockThin;html=1;labelPosition=left;verticalLabelPosition=middle;align=right;verticalAlign=middle;dashed=1;dashPattern=8 4;endFill=0;startArrow=oval;startFill=0;endSize=6;startSize=4;rounded=0;entryX=0.5;entryY=1;entryDx=0;entryDy=0;entryPerimeter=0;exitX=0.5;exitY=0;exitDx=0;exitDy=0;exitPerimeter=0;" parent="06xptAxNhRXn6v7l2ab3-1" source="06xptAxNhRXn6v7l2ab3-72" target="06xptAxNhRXn6v7l2ab3-27" edge="1">
          <mxGeometry relative="1" as="geometry">
            <mxPoint x="2604.4700000000003" y="497.94000000000005" as="sourcePoint" />
            <mxPoint x="2604" y="160" as="targetPoint" />
          </mxGeometry>
        </mxCell>
        <mxCell id="06xptAxNhRXn6v7l2ab3-126" value="Уведомление&lt;div&gt;&amp;nbsp;о решении&lt;/div&gt;" style="shape=message;html=1;outlineConnect=0;labelPosition=left;verticalLabelPosition=middle;align=right;verticalAlign=middle;spacingRight=5;labelBackgroundColor=#ffffff;" parent="06xptAxNhRXn6v7l2ab3-125" vertex="1">
          <mxGeometry width="24" height="16" relative="1" as="geometry">
            <mxPoint x="15" y="-93" as="offset" />
          </mxGeometry>
        </mxCell>
        <mxCell id="06xptAxNhRXn6v7l2ab3-22" value="" style="endArrow=blockThin;html=1;labelPosition=left;verticalLabelPosition=middle;align=right;verticalAlign=middle;dashed=1;dashPattern=8 4;endFill=0;startArrow=oval;startFill=0;endSize=6;startSize=4;rounded=0;entryX=0.5;entryY=0;entryDx=0;entryDy=0;entryPerimeter=0;" parent="06xptAxNhRXn6v7l2ab3-1" target="06xptAxNhRXn6v7l2ab3-68" edge="1">
          <mxGeometry relative="1" as="geometry">
            <mxPoint x="1680" y="200" as="sourcePoint" />
            <mxPoint x="1680" y="310" as="targetPoint" />
          </mxGeometry>
        </mxCell>
        <mxCell id="06xptAxNhRXn6v7l2ab3-23" value="Согласие на добавление&lt;div&gt;заявки в лист ожидания&lt;/div&gt;" style="shape=message;html=1;outlineConnect=0;labelPosition=left;verticalLabelPosition=middle;align=right;verticalAlign=middle;spacingRight=5;labelBackgroundColor=#ffffff;" parent="06xptAxNhRXn6v7l2ab3-22" vertex="1">
          <mxGeometry width="24" height="16" relative="1" as="geometry">
            <mxPoint x="10" y="-4" as="offset" />
          </mxGeometry>
        </mxCell>
        <mxCell id="06xptAxNhRXn6v7l2ab3-3" value="" style="endArrow=blockThin;html=1;labelPosition=left;verticalLabelPosition=middle;align=right;verticalAlign=middle;dashed=1;dashPattern=8 4;endFill=0;startArrow=oval;startFill=0;rounded=0;exitX=0.5;exitY=0;exitDx=0;exitDy=0;exitPerimeter=0;entryX=0.5;entryY=1;entryDx=0;entryDy=0;entryPerimeter=0;" parent="06xptAxNhRXn6v7l2ab3-1" source="06xptAxNhRXn6v7l2ab3-42" target="06xptAxNhRXn6v7l2ab3-5" edge="1">
          <mxGeometry relative="1" as="geometry">
            <mxPoint x="241" y="310" as="sourcePoint" />
            <mxPoint x="240.52" y="170" as="targetPoint" />
          </mxGeometry>
        </mxCell>
        <mxCell id="06xptAxNhRXn6v7l2ab3-4" value="Объявление&lt;div&gt;о наборе&lt;/div&gt;" style="shape=message;html=1;outlineConnect=0;labelPosition=left;verticalLabelPosition=middle;align=right;verticalAlign=middle;spacingRight=5;labelBackgroundColor=#ffffff;" parent="06xptAxNhRXn6v7l2ab3-3" vertex="1">
          <mxGeometry width="24" height="16" relative="1" as="geometry">
            <mxPoint x="3" y="50" as="offset" />
          </mxGeometry>
        </mxCell>
        <mxCell id="06xptAxNhRXn6v7l2ab3-124" value="" style="endArrow=classic;html=1;rounded=0;exitX=0.5;exitY=0;exitDx=0;exitDy=0;exitPerimeter=0;" parent="1" source="06xptAxNhRXn6v7l2ab3-75" edge="1">
          <mxGeometry width="50" height="50" relative="1" as="geometry">
            <mxPoint x="3620" y="1801.0500000000002" as="sourcePoint" />
            <mxPoint x="3635" y="1750" as="targetPoint" />
          </mxGeometry>
        </mxCell>
      </root>
    </mxGraphModel>
  </diagram>
</mxfile>
